<svg width="79" height="73" viewBox="0 0 79 73" fill="none" xmlns="http://www.w3.org/2000/svg">
<path d="M29.4125 71.96C26.5965 71.96 23.9405 71.416 21.4445 70.328C18.9485 69.24 16.8365 67.8 15.1085 66.008C13.3805 64.152 12.2605 62.136 11.7485 59.96V33.848C12.2605 31.672 13.3805 29.752 15.1085 28.088C16.8365 26.424 18.9485 25.144 21.4445 24.248C23.9405 23.288 26.5965 22.808 29.4125 22.808C34.0845 22.808 38.1485 23.864 41.6045 25.976C45.1245 28.024 47.8445 30.904 49.7645 34.616C51.7485 38.328 52.7405 42.584 52.7405 47.384C52.7405 52.184 51.7485 56.44 49.7645 60.152C47.8445 63.8 45.1245 66.68 41.6045 68.792C38.1485 70.904 34.0845 71.96 29.4125 71.96ZM25.9565 55.448C27.4925 55.448 28.8365 55.096 29.9885 54.392C31.2045 53.688 32.1325 52.728 32.7725 51.512C33.4765 50.296 33.8285 48.92 33.8285 47.384C33.8285 45.848 33.4765 44.472 32.7725 43.256C32.1325 42.04 31.2045 41.08 29.9885 40.376C28.7725 39.672 27.3965 39.32 25.8605 39.32C24.3245 39.32 22.9485 39.672 21.7325 40.376C20.5805 41.08 19.6845 42.04 19.0445 43.256C18.4045 44.408 18.0845 45.784 18.0845 47.384C18.0845 48.984 18.4045 50.392 19.0445 51.608C19.7485 52.824 20.6765 53.784 21.8285 54.488C23.0445 55.128 24.4205 55.448 25.9565 55.448ZM0.3245 71V0.727995H19.1405V35.384L16.0685 46.808L18.6605 58.328V71H0.3245ZM68.4425 72.152C65.4345 72.152 62.9385 71.128 60.9545 69.08C58.9705 67.032 57.9785 64.536 57.9785 61.592C57.9785 58.584 58.9705 56.056 60.9545 54.008C62.9385 51.96 65.4345 50.936 68.4425 50.936C71.4505 50.936 73.9145 51.96 75.8345 54.008C77.8185 56.056 78.8105 58.584 78.8105 61.592C78.8105 64.536 77.8185 67.032 75.8345 69.08C73.9145 71.128 71.4505 72.152 68.4425 72.152Z" fill="white"/>
</svg>
